<svg xmlns="http://www.w3.org/2000/svg" xmlns:xlink="http://www.w3.org/1999/xlink" width="24" height="24" viewBox="0 0 24 24">
  <defs>
    <clipPath id="clip-path">
      <path id="Mask" d="M14,24H10A10.011,10.011,0,0,1,0,14V10A10.011,10.011,0,0,1,10,0h4A10.011,10.011,0,0,1,24,10v4A10.011,10.011,0,0,1,14,24ZM6,13.2a1.2,1.2,0,0,0-1,1.866C6.83,17.809,9.185,19.2,12,19.2s5.17-1.391,7-4.134a1.2,1.2,0,1,0-2-1.332C15.626,15.8,13.99,16.8,12,16.8s-3.625-1-5-3.066A1.2,1.2,0,0,0,6,13.2Z" fill="#ff7e4c"/>
    </clipPath>
  </defs>
  <g id="Smile" transform="translate(0 0)">
    <g id="Oval">
      <path id="Mask-2" data-name="Mask" d="M14,24H10A10.011,10.011,0,0,1,0,14V10A10.011,10.011,0,0,1,10,0h4A10.011,10.011,0,0,1,24,10v4A10.011,10.011,0,0,1,14,24ZM6,13.2a1.2,1.2,0,0,0-1,1.866C6.83,17.809,9.185,19.2,12,19.2s5.17-1.391,7-4.134a1.2,1.2,0,1,0-2-1.332C15.626,15.8,13.99,16.8,12,16.8s-3.625-1-5-3.066A1.2,1.2,0,0,0,6,13.2Z" fill="#ff7e4c"/>
      <g id="Oval-2" data-name="Oval" clip-path="url(#clip-path)">
        <circle id="Oval-3" data-name="Oval" cx="15" cy="15" r="15" transform="translate(8 -12)" fill="#ffa27e"/>
      </g>
    </g>
  </g>
</svg>
