<svg xmlns="http://www.w3.org/2000/svg" xmlns:xlink="http://www.w3.org/1999/xlink" width="17.6" height="22" viewBox="0 0 17.6 22">
  <defs>
    <clipPath id="clip-path">
      <path id="Combined_Shape" data-name="Combined Shape" d="M16.5,22H3.3A3.293,3.293,0,0,1,.93,21.049,3.307,3.307,0,0,1,0,18.7V3.3A3.308,3.308,0,0,1,.93.951,3.292,3.292,0,0,1,3.3,0H16.5a1,1,0,0,1,1.1,1.1V17.6H4.4a1.1,1.1,0,1,0,0,2.2H17.6v1.1A1,1,0,0,1,16.5,22Z" fill="#1e81fe"/>
    </clipPath>
  </defs>
  <g id="Book" transform="translate(0 0)">
    <path id="Combined_Shape-2" data-name="Combined Shape" d="M16.5,22H3.3A3.293,3.293,0,0,1,.93,21.049,3.307,3.307,0,0,1,0,18.7V3.3A3.308,3.308,0,0,1,.93.951,3.292,3.292,0,0,1,3.3,0H16.5a1,1,0,0,1,1.1,1.1V17.6H4.4a1.1,1.1,0,1,0,0,2.2H17.6v1.1A1,1,0,0,1,16.5,22Z" fill="#1e81fe"/>
    <g id="Book-2" data-name="Book" clip-path="url(#clip-path)">
      <circle id="Oval" cx="15" cy="15" r="15" transform="translate(5 -14)" fill="#6cadff"/>
    </g>
  </g>
</svg>
