<svg xmlns="http://www.w3.org/2000/svg" xmlns:xlink="http://www.w3.org/1999/xlink" width="24" height="16.364" viewBox="0 0 24 16.364">
  <defs>
    <clipPath id="clip-path">
      <path id="Mask" d="M20.6,16.364H3.389A3.013,3.013,0,0,1,.4,13.583L0,8.182l.4-5.4A3.013,3.013,0,0,1,3.389,0h17.24A3,3,0,0,1,23.62,2.762L24,7.553l-.41,6.015A3.01,3.01,0,0,1,20.6,16.364Zm-9.841-12.2a.5.5,0,0,0-.5.5v6.761a.5.5,0,0,0,.782.412l4.929-3.37a.5.5,0,0,0,0-.824l-4.93-3.391A.5.5,0,0,0,10.757,4.162Z" fill="#1e81fe"/>
    </clipPath>
  </defs>
  <g id="Oval" transform="translate(0 0)">
    <path id="Mask-2" data-name="Mask" d="M20.6,16.364H3.389A3.013,3.013,0,0,1,.4,13.583L0,8.182l.4-5.4A3.013,3.013,0,0,1,3.389,0h17.24A3,3,0,0,1,23.62,2.762L24,7.553l-.41,6.015A3.01,3.01,0,0,1,20.6,16.364Zm-9.841-12.2a.5.5,0,0,0-.5.5v6.761a.5.5,0,0,0,.782.412l4.929-3.37a.5.5,0,0,0,0-.824l-4.93-3.391A.5.5,0,0,0,10.757,4.162Z" fill="#1e81fe"/>
    <g id="Oval-2" data-name="Oval" clip-path="url(#clip-path)">
      <circle id="Oval-3" data-name="Oval" cx="15" cy="15" r="15" transform="translate(6 -17)" fill="#6cadff"/>
    </g>
  </g>
</svg>
