<svg id="jenius_icons_transfer" data-name="jenius / icons / transfer" xmlns="http://www.w3.org/2000/svg" xmlns:xlink="http://www.w3.org/1999/xlink" width="28" height="28" viewBox="0 0 28 28">
  <defs>
    <clipPath id="clip-path">
      <path id="Mask" d="M22.934,20.625a1.534,1.534,0,0,1-.565,1.205,6.448,6.448,0,0,1-4.54,1.31.541.541,0,0,0-.225.03,13.8,13.8,0,0,1-4.585.83,9.761,9.761,0,0,1-2.81-.395,1.526,1.526,0,0,1-.38-.175A5.11,5.11,0,0,0,7.2,22.74a6.063,6.063,0,0,0-.99.085,5.125,5.125,0,0,1-.615.03c-1.345,0-4.57-.375-5.44-3.855a4.728,4.728,0,0,1,.4-3.45A4.839,4.839,0,0,1,3.9,13.4a4.9,4.9,0,0,1,1.3-.155,6.158,6.158,0,0,1,4.23,1.7.542.542,0,0,0,.52.125,5.819,5.819,0,0,1,1.68-.255,5.407,5.407,0,0,1,3.045.935.04.04,0,0,0,.05-.03l.365-5.13a.448.448,0,0,0-.025-.215l-1.49-3.1c-.01-.025-.02-.05-.03-.08-.03-.1-.14-.3-.235-.3a.415.415,0,0,0-.2.075,1.631,1.631,0,0,1-.625.24,2.83,2.83,0,0,1-.395.03,4.3,4.3,0,0,1-1.485-.3.678.678,0,0,0-.1-.03c-.045-.005-.1-.02-.175-.035a1.322,1.322,0,0,0-.765,0,2.721,2.721,0,0,1-1.385.34,4.048,4.048,0,0,1-1.135-.17,2.148,2.148,0,0,1-.835-.44.979.979,0,0,1-.28-.935,1.7,1.7,0,0,1,.945-1.19c.15-.06.33-.135.52-.21-.585-.53-1.17-1.295-.715-1.97a.467.467,0,0,1,.14-.14A4.444,4.444,0,0,0,8.034.875,1.984,1.984,0,0,1,9.689,0a2.639,2.639,0,0,1,1.06.24c.53.13,3.6.92,4.71,1.985a6.686,6.686,0,0,1,1.69,2.68A14.01,14.01,0,0,0,18.764,8.61a1.364,1.364,0,0,1,.19.23c.59.905,2.53,3.96,2.8,5.47A24.463,24.463,0,0,1,22.934,20.625Z" fill="#6650bc"/>
    </clipPath>
  </defs>
  <rect id="Rectangle" width="28" height="28" fill="none"/>
  <g id="Oval" transform="translate(3 1)">
    <path id="Mask-2" data-name="Mask" d="M22.934,20.625a1.534,1.534,0,0,1-.565,1.205,6.448,6.448,0,0,1-4.54,1.31.541.541,0,0,0-.225.03,13.8,13.8,0,0,1-4.585.83,9.761,9.761,0,0,1-2.81-.395,1.526,1.526,0,0,1-.38-.175A5.11,5.11,0,0,0,7.2,22.74a6.063,6.063,0,0,0-.99.085,5.125,5.125,0,0,1-.615.03c-1.345,0-4.57-.375-5.44-3.855a4.728,4.728,0,0,1,.4-3.45A4.839,4.839,0,0,1,3.9,13.4a4.9,4.9,0,0,1,1.3-.155,6.158,6.158,0,0,1,4.23,1.7.542.542,0,0,0,.52.125,5.819,5.819,0,0,1,1.68-.255,5.407,5.407,0,0,1,3.045.935.04.04,0,0,0,.05-.03l.365-5.13a.448.448,0,0,0-.025-.215l-1.49-3.1c-.01-.025-.02-.05-.03-.08-.03-.1-.14-.3-.235-.3a.415.415,0,0,0-.2.075,1.631,1.631,0,0,1-.625.24,2.83,2.83,0,0,1-.395.03,4.3,4.3,0,0,1-1.485-.3.678.678,0,0,0-.1-.03c-.045-.005-.1-.02-.175-.035a1.322,1.322,0,0,0-.765,0,2.721,2.721,0,0,1-1.385.34,4.048,4.048,0,0,1-1.135-.17,2.148,2.148,0,0,1-.835-.44.979.979,0,0,1-.28-.935,1.7,1.7,0,0,1,.945-1.19c.15-.06.33-.135.52-.21-.585-.53-1.17-1.295-.715-1.97a.467.467,0,0,1,.14-.14A4.444,4.444,0,0,0,8.034.875,1.984,1.984,0,0,1,9.689,0a2.639,2.639,0,0,1,1.06.24c.53.13,3.6.92,4.71,1.985a6.686,6.686,0,0,1,1.69,2.68A14.01,14.01,0,0,0,18.764,8.61a1.364,1.364,0,0,1,.19.23c.59.905,2.53,3.96,2.8,5.47A24.463,24.463,0,0,1,22.934,20.625Z" fill="#6650bc"/>
    <g id="Oval-2" data-name="Oval" clip-path="url(#clip-path)">
      <circle id="Oval-3" data-name="Oval" cx="17.5" cy="17.5" r="17.5" transform="translate(5 -14)" fill="#a18bf5"/>
    </g>
  </g>
</svg>
