<svg id="Oval" xmlns="http://www.w3.org/2000/svg" xmlns:xlink="http://www.w3.org/1999/xlink" width="18.269" height="22" viewBox="0 0 18.269 22">
  <defs>
    <clipPath id="clip-path">
      <path id="Mask" d="M17.376,19.055a26.32,26.32,0,0,1-8.424-6.136C7,8.649,4.967,4.35,2.912.14A.25.25,0,0,0,2.494.092,10.983,10.983,0,0,0,.169,8.979a.272.272,0,0,0,.037.093c.888,1.366,1.818,2.728,2.764,4.046a1.561,1.561,0,0,1-.018,1.851,2.983,2.983,0,0,0-.44.839,2.473,2.473,0,0,0,.9,2.806,5.011,5.011,0,0,0,2.885.951,6.1,6.1,0,0,1,2.762.7A15.008,15.008,0,0,0,16.05,22h0c.254,0,.509-.007.763-.02a1.534,1.534,0,0,0,.563-2.926Z" fill="#1e81fe"/>
    </clipPath>
  </defs>
  <path id="Mask-2" data-name="Mask" d="M17.376,19.055a26.32,26.32,0,0,1-8.424-6.136C7,8.649,4.967,4.35,2.912.14A.25.25,0,0,0,2.494.092,10.983,10.983,0,0,0,.169,8.979a.272.272,0,0,0,.037.093c.888,1.366,1.818,2.728,2.764,4.046a1.561,1.561,0,0,1-.018,1.851,2.983,2.983,0,0,0-.44.839,2.473,2.473,0,0,0,.9,2.806,5.011,5.011,0,0,0,2.885.951,6.1,6.1,0,0,1,2.762.7A15.008,15.008,0,0,0,16.05,22h0c.254,0,.509-.007.763-.02a1.534,1.534,0,0,0,.563-2.926Z" fill="#1e81fe"/>
  <g id="Oval-2" data-name="Oval" clip-path="url(#clip-path)">
    <circle id="Oval-3" data-name="Oval" cx="15" cy="15" r="15" transform="translate(5 -2)" fill="#6cadff"/>
  </g>
</svg>
