<svg xmlns="http://www.w3.org/2000/svg" xmlns:xlink="http://www.w3.org/1999/xlink" width="21.193" height="22" viewBox="0 0 21.193 22">
  <defs>
    <clipPath id="clip-path">
      <path id="Mask" d="M19.051,21.982c-2.03-.338-4.566-.846-6.425-1.353a6.255,6.255,0,0,0-4.059,0c-1.859.507-4.4,1.014-6.425,1.353-2.029.169-2.536-.846-1.859-2.029.507-1.184,2.536-2.875,3.551-3.551s1.184-.846,2.367-.677c1.015.169,2.2,1.481,4.4,1.311,2.2.169,3.382-1.142,4.4-1.311,1.183-.169,1.353,0,2.367.677s3.043,2.367,3.551,3.551c.627,1.1.238,2.048-1.435,2.048Q19.276,22,19.051,21.982ZM5.187,14.541C4,13.8,4.112,13.325,4.389,12.178c.04-.161.079-.327.121-.511a13.218,13.218,0,0,1,1.86-4.4c.507-1.014.853-1.014,1.69-1.014H13.3c.676,0,1.015,0,1.691,1.014a13.237,13.237,0,0,1,1.86,4.4l.034.156a3.74,3.74,0,0,1,.167,1.58c-.1.4-.4.735-1.047,1.139A11.148,11.148,0,0,1,10.6,15.894,11.14,11.14,0,0,1,5.187,14.541Zm5.579.169c1.212,0,2.2-.531,2.2-1.184H8.4C8.4,14.2,9.416,14.711,10.766,14.711ZM7.891,2.705A2.671,2.671,0,0,1,10.6,0a2.818,2.818,0,0,1,2.875,2.705A2.85,2.85,0,0,1,10.6,5.58,2.714,2.714,0,0,1,7.891,2.705Z" fill="#4da455"/>
    </clipPath>
  </defs>
  <g id="Oval" transform="translate(0)">
    <path id="Mask-2" data-name="Mask" d="M19.051,21.982c-2.03-.338-4.566-.846-6.425-1.353a6.255,6.255,0,0,0-4.059,0c-1.859.507-4.4,1.014-6.425,1.353-2.029.169-2.536-.846-1.859-2.029.507-1.184,2.536-2.875,3.551-3.551s1.184-.846,2.367-.677c1.015.169,2.2,1.481,4.4,1.311,2.2.169,3.382-1.142,4.4-1.311,1.183-.169,1.353,0,2.367.677s3.043,2.367,3.551,3.551c.627,1.1.238,2.048-1.435,2.048Q19.276,22,19.051,21.982ZM5.187,14.541C4,13.8,4.112,13.325,4.389,12.178c.04-.161.079-.327.121-.511a13.218,13.218,0,0,1,1.86-4.4c.507-1.014.853-1.014,1.69-1.014H13.3c.676,0,1.015,0,1.691,1.014a13.237,13.237,0,0,1,1.86,4.4l.034.156a3.74,3.74,0,0,1,.167,1.58c-.1.4-.4.735-1.047,1.139A11.148,11.148,0,0,1,10.6,15.894,11.14,11.14,0,0,1,5.187,14.541Zm5.579.169c1.212,0,2.2-.531,2.2-1.184H8.4C8.4,14.2,9.416,14.711,10.766,14.711ZM7.891,2.705A2.671,2.671,0,0,1,10.6,0a2.818,2.818,0,0,1,2.875,2.705A2.85,2.85,0,0,1,10.6,5.58,2.714,2.714,0,0,1,7.891,2.705Z" fill="#4da455"/>
    <g id="Oval-2" data-name="Oval" clip-path="url(#clip-path)">
      <circle id="Oval-3" data-name="Oval" cx="17.5" cy="17.5" r="17.5" transform="translate(7 -15)" fill="#145b1b"/>
    </g>
  </g>
</svg>
