<svg xmlns="http://www.w3.org/2000/svg" xmlns:xlink="http://www.w3.org/1999/xlink" width="15.999" height="22.85" viewBox="0 0 15.999 22.85">
  <defs>
    <clipPath id="clip-path">
      <path id="Mask" d="M4.868,22.532a.989.989,0,0,1-.3-.71V3.107H2.286V21.9H0V.9H4.574a1,1,0,0,1,1-.925.968.968,0,0,1,.184.017l9.428,1.744A1,1,0,0,1,16,2.715V20.078a1,1,0,0,1-.818.983L5.753,22.805a1.047,1.047,0,0,1-.184.016A.994.994,0,0,1,4.868,22.532ZM6.476,10.868A1.515,1.515,0,0,0,7.9,12.453a1.515,1.515,0,0,0,1.428-1.585A1.515,1.515,0,0,0,7.9,9.283,1.515,1.515,0,0,0,6.476,10.868Z" transform="translate(0 0.318)" fill="#4da455"/>
    </clipPath>
  </defs>
  <g id="Door-open" transform="translate(0 -0.289)">
    <g id="Oval">
      <path id="Mask-2" data-name="Mask" d="M4.868,22.532a.989.989,0,0,1-.3-.71V3.107H2.286V21.9H0V.9H4.574a1,1,0,0,1,1-.925.968.968,0,0,1,.184.017l9.428,1.744A1,1,0,0,1,16,2.715V20.078a1,1,0,0,1-.818.983L5.753,22.805a1.047,1.047,0,0,1-.184.016A.994.994,0,0,1,4.868,22.532ZM6.476,10.868A1.515,1.515,0,0,0,7.9,12.453a1.515,1.515,0,0,0,1.428-1.585A1.515,1.515,0,0,0,7.9,9.283,1.515,1.515,0,0,0,6.476,10.868Z" transform="translate(0 0.318)" fill="#4da455"/>
      <g id="Oval-2" data-name="Oval" clip-path="url(#clip-path)">
        <circle id="Oval-3" data-name="Oval" cx="17.5" cy="17.5" r="17.5" transform="translate(2 -16)" fill="#145b1b"/>
      </g>
    </g>
  </g>
</svg>
