<svg id="Group_7" data-name="Group 7" xmlns="http://www.w3.org/2000/svg" xmlns:xlink="http://www.w3.org/1999/xlink" width="28" height="28" viewBox="0 0 28 28">
  <defs>
    <clipPath id="clip-path">
      <path id="Mask" d="M3.73,16.4c0-1.771.486-4.315,2.686-5.571A2.489,2.489,0,0,0,7.588,9.367a3.285,3.285,0,0,1,3.086-2.428,3.312,3.312,0,0,1,3.085,2.428,2.577,2.577,0,0,0,1.172,1.458c2.228,1.256,2.686,3.8,2.714,5.571,0,2.457-4.714,2.542-6.115-.086a.967.967,0,0,0-1.686,0,4.026,4.026,0,0,1-3.571,1.96C4.916,18.271,3.73,17.628,3.73,16.4ZM15.583,9.979c-1.038-1.038-.721-3.037.707-4.465s3.427-1.745,4.465-.707.722,3.037-.706,4.465a4.211,4.211,0,0,1-2.869,1.318A2.2,2.2,0,0,1,15.583,9.979ZM1.318,9.271C-.111,7.843-.427,5.844.611,4.806s3.037-.721,4.465.707,1.744,3.427.707,4.465a2.205,2.205,0,0,1-1.6.611A4.211,4.211,0,0,1,1.318,9.271ZM5.045,3.96A2.985,2.985,0,0,1,6.665.1a2.985,2.985,0,0,1,3.471,2.331A2.984,2.984,0,0,1,8.517,6.29a2.22,2.22,0,0,1-.638.093A3.171,3.171,0,0,1,5.045,3.96Zm7.792,2.319a2.986,2.986,0,0,1-1.62-3.856A2.985,2.985,0,0,1,14.69.094a2.984,2.984,0,0,1,1.619,3.855,3.173,3.173,0,0,1-2.833,2.424A2.217,2.217,0,0,1,12.838,6.279Z" transform="translate(0 0.861)" fill="#4da455"/>
    </clipPath>
  </defs>
  <rect id="Rectangle" width="28" height="28" fill="none"/>
  <g id="Group" transform="translate(3 4)">
    <g id="Oval" transform="translate(0.326)">
      <path id="Mask-2" data-name="Mask" d="M3.73,16.4c0-1.771.486-4.315,2.686-5.571A2.489,2.489,0,0,0,7.588,9.367a3.285,3.285,0,0,1,3.086-2.428,3.312,3.312,0,0,1,3.085,2.428,2.577,2.577,0,0,0,1.172,1.458c2.228,1.256,2.686,3.8,2.714,5.571,0,2.457-4.714,2.542-6.115-.086a.967.967,0,0,0-1.686,0,4.026,4.026,0,0,1-3.571,1.96C4.916,18.271,3.73,17.628,3.73,16.4ZM15.583,9.979c-1.038-1.038-.721-3.037.707-4.465s3.427-1.745,4.465-.707.722,3.037-.706,4.465a4.211,4.211,0,0,1-2.869,1.318A2.2,2.2,0,0,1,15.583,9.979ZM1.318,9.271C-.111,7.843-.427,5.844.611,4.806s3.037-.721,4.465.707,1.744,3.427.707,4.465a2.205,2.205,0,0,1-1.6.611A4.211,4.211,0,0,1,1.318,9.271ZM5.045,3.96A2.985,2.985,0,0,1,6.665.1a2.985,2.985,0,0,1,3.471,2.331A2.984,2.984,0,0,1,8.517,6.29a2.22,2.22,0,0,1-.638.093A3.171,3.171,0,0,1,5.045,3.96Zm7.792,2.319a2.986,2.986,0,0,1-1.62-3.856A2.985,2.985,0,0,1,14.69.094a2.984,2.984,0,0,1,1.619,3.855,3.173,3.173,0,0,1-2.833,2.424A2.217,2.217,0,0,1,12.838,6.279Z" transform="translate(0 0.861)" fill="#4da455"/>
      <g id="Oval-2" data-name="Oval" clip-path="url(#clip-path)">
        <circle id="Oval-3" data-name="Oval" cx="17.5" cy="17.5" r="17.5" transform="translate(4.674 -17)" fill="#145b1b"/>
      </g>
    </g>
  </g>
</svg>
