<svg id="jenius_icons_transfer" data-name="jenius / icons / transfer" xmlns="http://www.w3.org/2000/svg" xmlns:xlink="http://www.w3.org/1999/xlink" width="28" height="28" viewBox="0 0 28 28">
  <defs>
    <clipPath id="clip-path">
      <path id="Mask" d="M.675,21.925A.672.672,0,0,1,0,21.25v-6.8A.7.7,0,0,1,.9,13.8a3.146,3.146,0,0,1,1.075.651,1.337,1.337,0,0,0,2,0,2.8,2.8,0,0,1,1.975-.8,2.839,2.839,0,0,1,1.95.8,1.336,1.336,0,0,0,2,0,2.8,2.8,0,0,1,1.975-.8,2.856,2.856,0,0,1,1.976.8,1.336,1.336,0,0,0,2,0,2.752,2.752,0,0,1,1.976-.8,2.853,2.853,0,0,1,1.975.8,1.336,1.336,0,0,0,2,0,2.93,2.93,0,0,1,1.076-.651.635.635,0,0,1,.85.651v6.8a.672.672,0,0,1-.675.675Zm8.024-8.9a4.416,4.416,0,0,0-1.8-.851V3a3,3,0,0,1,3-3,.9.9,0,0,1,0,1.8A1.2,1.2,0,0,0,8.675,3V4.625h6.476V3a3,3,0,0,1,3-3,.9.9,0,0,1,0,1.8,1.2,1.2,0,0,0-1.2,1.2v9.176a4.439,4.439,0,0,0-1.8.849V10.575H8.7v2.452ZM8.675,8.775h6.476V6.425H8.675Z" transform="translate(0 0.025)" fill="#1e81fe"/>
    </clipPath>
  </defs>
  <rect id="Rectangle" width="28" height="28" fill="none"/>
  <g id="Group" transform="translate(2 3)">
    <g id="Oval" transform="translate(0.1)">
      <path id="Mask-2" data-name="Mask" d="M.675,21.925A.672.672,0,0,1,0,21.25v-6.8A.7.7,0,0,1,.9,13.8a3.146,3.146,0,0,1,1.075.651,1.337,1.337,0,0,0,2,0,2.8,2.8,0,0,1,1.975-.8,2.839,2.839,0,0,1,1.95.8,1.336,1.336,0,0,0,2,0,2.8,2.8,0,0,1,1.975-.8,2.856,2.856,0,0,1,1.976.8,1.336,1.336,0,0,0,2,0,2.752,2.752,0,0,1,1.976-.8,2.853,2.853,0,0,1,1.975.8,1.336,1.336,0,0,0,2,0,2.93,2.93,0,0,1,1.076-.651.635.635,0,0,1,.85.651v6.8a.672.672,0,0,1-.675.675Zm8.024-8.9a4.416,4.416,0,0,0-1.8-.851V3a3,3,0,0,1,3-3,.9.9,0,0,1,0,1.8A1.2,1.2,0,0,0,8.675,3V4.625h6.476V3a3,3,0,0,1,3-3,.9.9,0,0,1,0,1.8,1.2,1.2,0,0,0-1.2,1.2v9.176a4.439,4.439,0,0,0-1.8.849V10.575H8.7v2.452ZM8.675,8.775h6.476V6.425H8.675Z" transform="translate(0 0.025)" fill="#1e81fe"/>
      <g id="Oval-2" data-name="Oval" clip-path="url(#clip-path)">
        <circle id="Oval-3" data-name="Oval" cx="15" cy="15" r="15" transform="translate(8.9 -12)" fill="#6cadff"/>
      </g>
    </g>
  </g>
</svg>
