<svg id="Group_6" data-name="Group 6" xmlns="http://www.w3.org/2000/svg" xmlns:xlink="http://www.w3.org/1999/xlink" width="28" height="28" viewBox="0 0 28 28">
  <defs>
    <clipPath id="clip-path">
      <path id="Mask" d="M13.875,22a1.5,1.5,0,0,1-1.5-1.5V13.875a1.5,1.5,0,0,1,1.5-1.5H20.5a1.5,1.5,0,0,1,1.5,1.5V20.5A1.5,1.5,0,0,1,20.5,22ZM1.5,22A1.5,1.5,0,0,1,0,20.5V13.875a1.5,1.5,0,0,1,1.5-1.5H8.125a1.5,1.5,0,0,1,1.5,1.5V20.5a1.5,1.5,0,0,1-1.5,1.5ZM13.875,9.625a1.5,1.5,0,0,1-1.5-1.5V1.5a1.5,1.5,0,0,1,1.5-1.5H20.5A1.5,1.5,0,0,1,22,1.5V8.125a1.5,1.5,0,0,1-1.5,1.5ZM1.5,9.625A1.5,1.5,0,0,1,0,8.125V1.5A1.5,1.5,0,0,1,1.5,0H8.125a1.5,1.5,0,0,1,1.5,1.5V8.125a1.5,1.5,0,0,1-1.5,1.5Z" fill="#293852"/>
    </clipPath>
  </defs>
  <rect id="Rectangle" width="28" height="28" fill="none"/>
  <g id="Layout-4-blocks" transform="translate(3 3)">
    <g id="Oval">
      <path id="Mask-2" data-name="Mask" d="M13.875,22a1.5,1.5,0,0,1-1.5-1.5V13.875a1.5,1.5,0,0,1,1.5-1.5H20.5a1.5,1.5,0,0,1,1.5,1.5V20.5A1.5,1.5,0,0,1,20.5,22ZM1.5,22A1.5,1.5,0,0,1,0,20.5V13.875a1.5,1.5,0,0,1,1.5-1.5H8.125a1.5,1.5,0,0,1,1.5,1.5V20.5a1.5,1.5,0,0,1-1.5,1.5ZM13.875,9.625a1.5,1.5,0,0,1-1.5-1.5V1.5a1.5,1.5,0,0,1,1.5-1.5H20.5A1.5,1.5,0,0,1,22,1.5V8.125a1.5,1.5,0,0,1-1.5,1.5ZM1.5,9.625A1.5,1.5,0,0,1,0,8.125V1.5A1.5,1.5,0,0,1,1.5,0H8.125a1.5,1.5,0,0,1,1.5,1.5V8.125a1.5,1.5,0,0,1-1.5,1.5Z" fill="#293852"/>
      <g id="Oval-2" data-name="Oval" clip-path="url(#clip-path)">
        <circle id="Oval-3" data-name="Oval" cx="20.625" cy="20.625" r="20.625" transform="translate(4.125 -20.625)" fill="#596579"/>
      </g>
    </g>
  </g>
</svg>
