<svg id="jenius_icons_transfer" data-name="jenius / icons / transfer" xmlns="http://www.w3.org/2000/svg" xmlns:xlink="http://www.w3.org/1999/xlink" width="28" height="28" viewBox="0 0 28 28">
  <defs>
    <clipPath id="clip-path">
      <path id="Mask" d="M7.546,20.091a4,4,0,0,1-4-4V10.636H1a1,1,0,0,1-1-1V9.273a1,1,0,0,1,1-1H3.545V6.909a1,1,0,0,1,1-1H21.454a1,1,0,0,1,1,1V8.273H25a1,1,0,0,1,1,1v.364a1,1,0,0,1-1,1H22.454v5.455a4,4,0,0,1-4,4ZM3.509,4.728a.5.5,0,0,1-.391-.819q-.942.3-1.861.658l2.071-.806a.507.507,0,0,0-.21.148,32.8,32.8,0,0,1,7.518-1.457V1a1,1,0,0,1,1-1h2.728a1,1,0,0,1,1,1V2.363h.454a17.535,17.535,0,0,1,6.3,1.182l.555.216a.5.5,0,0,1-.181.967Z" transform="translate(0 0)" fill="#ff7e4c"/>
    </clipPath>
  </defs>
  <rect id="Rectangle" width="28" height="28" fill="none"/>
  <g id="Cooking-pot" transform="translate(1 4)">
    <g id="Oval">
      <path id="Mask-2" data-name="Mask" d="M7.546,20.091a4,4,0,0,1-4-4V10.636H1a1,1,0,0,1-1-1V9.273a1,1,0,0,1,1-1H3.545V6.909a1,1,0,0,1,1-1H21.454a1,1,0,0,1,1,1V8.273H25a1,1,0,0,1,1,1v.364a1,1,0,0,1-1,1H22.454v5.455a4,4,0,0,1-4,4ZM3.509,4.728a.5.5,0,0,1-.391-.819q-.942.3-1.861.658l2.071-.806a.507.507,0,0,0-.21.148,32.8,32.8,0,0,1,7.518-1.457V1a1,1,0,0,1,1-1h2.728a1,1,0,0,1,1,1V2.363h.454a17.535,17.535,0,0,1,6.3,1.182l.555.216a.5.5,0,0,1-.181.967Z" transform="translate(0 0)" fill="#ff7e4c"/>
      <g id="Oval-2" data-name="Oval" clip-path="url(#clip-path)">
        <circle id="Oval-3" data-name="Oval" cx="15" cy="15" r="15" transform="translate(8 -13)" fill="#ffa27e"/>
      </g>
    </g>
  </g>
</svg>
