<svg id="Group_6" data-name="Group 6" xmlns="http://www.w3.org/2000/svg" xmlns:xlink="http://www.w3.org/1999/xlink" width="28" height="28" viewBox="0 0 28 28">
  <defs>
    <clipPath id="clip-path">
      <path id="Mask" d="M2,22.5a2,2,0,0,1-2-2V4.5q0-.063,0-.125H0l0-.008A2,2,0,0,1,.872,2.85L2.5,0h15l1.629,2.85A2,2,0,0,1,20,4.367l0,.008h0q0,.062,0,.125v16a2,2,0,0,1-2,2Zm3-14V9a1,1,0,0,0,1,1h8a1,1,0,0,0,1-1V8.5a1,1,0,0,0-1-1H6A1,1,0,0,0,5,8.5Z" fill="#747e94"/>
    </clipPath>
  </defs>
  <rect id="Rectangle" width="28" height="28" fill="none"/>
  <g id="Box_1" data-name="Box#1" transform="translate(4 3)">
    <g id="Oval">
      <path id="Mask-2" data-name="Mask" d="M2,22.5a2,2,0,0,1-2-2V4.5q0-.063,0-.125H0l0-.008A2,2,0,0,1,.872,2.85L2.5,0h15l1.629,2.85A2,2,0,0,1,20,4.367l0,.008h0q0,.062,0,.125v16a2,2,0,0,1-2,2Zm3-14V9a1,1,0,0,0,1,1h8a1,1,0,0,0,1-1V8.5a1,1,0,0,0-1-1H6A1,1,0,0,0,5,8.5Z" fill="#747e94"/>
      <g id="Oval-2" data-name="Oval" clip-path="url(#clip-path)">
        <circle id="Oval-3" data-name="Oval" cx="17.5" cy="17.5" r="17.5" transform="translate(4 -18)" fill="#8992a4"/>
      </g>
    </g>
  </g>
</svg>
