<svg id="Group" xmlns="http://www.w3.org/2000/svg" width="24" height="24" viewBox="0 0 24 24">
  <rect id="Rectangle" width="24" height="24" fill="none"/>
  <g id="Group-chat" transform="translate(4 4)">
    <path id="Combined_Shape" data-name="Combined Shape" d="M.176,15.657a.494.494,0,0,1-.156-.365V13.377A2.03,2.03,0,0,1,0,13.093V8.729A1.647,1.647,0,0,1,1.521,6.983H7.606A1.648,1.648,0,0,1,9.128,8.729v4.364a1.648,1.648,0,0,1-1.522,1.746h-6l-.72.79a.489.489,0,0,1-.365.165A.515.515,0,0,1,.176,15.657Zm5.161-3.873a.436.436,0,0,0,.436.436H7.181a.436.436,0,1,0,0-.872H5.772A.437.437,0,0,0,5.336,11.785ZM3.054,10.039a.437.437,0,0,0,.437.437H7.181a.437.437,0,0,0,0-.873H3.49A.437.437,0,0,0,3.054,10.039Zm12.068,2.917-1.68-1.93H10.661V8.238a3,3,0,0,0-3-3H3.177V2.205A2.08,2.08,0,0,1,5.1,0h8.968a2.08,2.08,0,0,1,1.922,2.205V8.821l.012,3.8a.488.488,0,0,1-.143.353.513.513,0,0,1-.362.15A.489.489,0,0,1,15.122,12.956Z" transform="translate(0.985)" fill="#1e81fe"/>
  </g>
</svg>
