<svg id="Group" xmlns="http://www.w3.org/2000/svg" width="24" height="24" viewBox="0 0 24 24">
  <g id="Binocular">
    <rect id="bound" width="24" height="24" fill="none"/>
    <path id="Combined_Shape" data-name="Combined Shape" d="M13.885,14.026a4.115,4.115,0,0,1-3.968-3.048L9.762,10.4H8.238l-.155.578A4.111,4.111,0,1,1,.141,8.851L1.7,3.048A4.111,4.111,0,0,1,9,1.706a4.11,4.11,0,0,1,7.3,1.342l1.554,5.8a4.115,4.115,0,0,1-3.973,5.176Zm.048-6.842A2.561,2.561,0,1,0,16.4,9.744,2.517,2.517,0,0,0,13.933,7.185Zm-9.866,0a2.561,2.561,0,0,0,0,5.118,2.561,2.561,0,0,0,0-5.118Z" transform="translate(3 5)" fill="#293852"/>
  </g>
</svg>
