<svg id="Group_6" data-name="Group 6" xmlns="http://www.w3.org/2000/svg" xmlns:xlink="http://www.w3.org/1999/xlink" width="28" height="28" viewBox="0 0 28 28">
  <defs>
    <clipPath id="clip-path">
      <path id="Mask" d="M13,15c-.387,0-.694-.294-1.082-.668A3.839,3.839,0,0,0,9,13a3.151,3.151,0,0,0-2.56,1.19A1.936,1.936,0,0,1,5,15H2a2,2,0,0,1-2-2V4A2,2,0,0,1,1.3,2.127L3,0H15l1.7,2.127A2,2,0,0,1,18,4v9a2,2,0,0,1-2,2ZM11,8a2,2,0,1,0,2-2A2,2,0,0,0,11,8ZM3,8A2,2,0,1,0,5,6,2,2,0,0,0,3,8Z" fill="#ff7e4c"/>
    </clipPath>
  </defs>
  <rect id="Rectangle" width="28" height="28" fill="none"/>
  <g id="Cardboard-vr" transform="translate(5 6)">
    <g id="Oval" transform="translate(0)">
      <path id="Mask-2" data-name="Mask" d="M13,15c-.387,0-.694-.294-1.082-.668A3.839,3.839,0,0,0,9,13a3.151,3.151,0,0,0-2.56,1.19A1.936,1.936,0,0,1,5,15H2a2,2,0,0,1-2-2V4A2,2,0,0,1,1.3,2.127L3,0H15l1.7,2.127A2,2,0,0,1,18,4v9a2,2,0,0,1-2,2ZM11,8a2,2,0,1,0,2-2A2,2,0,0,0,11,8ZM3,8A2,2,0,1,0,5,6,2,2,0,0,0,3,8Z" fill="#ff7e4c"/>
      <g id="Oval-2" data-name="Oval" clip-path="url(#clip-path)">
        <circle id="Oval-3" data-name="Oval" cx="17.5" cy="17.5" r="17.5" transform="translate(3 -22)" fill="#ffa27e"/>
      </g>
    </g>
  </g>
</svg>
