<svg id="Settings" xmlns="http://www.w3.org/2000/svg" width="24" height="24" viewBox="0 0 24 24">
  <rect id="Rectangle" width="24" height="24" fill="none"/>
  <g id="Group" transform="translate(0 3)">
    <path id="Combined_Shape" data-name="Combined Shape" d="M10,8a3,3,0,1,1,3,3A3,3,0,0,1,10,8ZM0,4A4,4,0,1,1,4,8,4,4,0,0,1,0,4Z" transform="translate(5)" fill="#cad1e2"/>
    <path id="Combined_Shape-2" data-name="Combined Shape" d="M19.6,8a9.916,9.916,0,0,0-2-6A7.227,7.227,0,0,1,22,3.349,5.328,5.328,0,0,1,24,7.4a.623.623,0,0,1-.134.454A.54.54,0,0,1,23.456,8ZM.727,8A1.107,1.107,0,0,1,0,7.2C.388,2.426,4.261,0,8.983,0,13.771,0,17.7,2.293,18,7.2a.687.687,0,0,1-.752.8Z" transform="translate(0 10)" fill="#cad1e2"/>
  </g>
</svg>
