<svg id="Settings_switch" data-name="Settings switch" xmlns="http://www.w3.org/2000/svg" width="24" height="24" viewBox="0 0 24 24">
  <rect id="Bound" width="24" height="24" fill="none" opacity="0.2"/>
  <path id="Combined_Shape" data-name="Combined Shape" d="M10.5,11a1.5,1.5,0,1,1,0-3h5a1.5,1.5,0,1,1,0,3Zm-9-8a1.5,1.5,0,1,1,0-3h5a1.5,1.5,0,1,1,0,3Z" transform="translate(3 7)" opacity="0.3"/>
  <path id="Combined_Shape-2" data-name="Combined Shape" d="M0,11a3,3,0,1,1,3,3A3,3,0,0,1,0,11ZM11,3a3,3,0,1,1,3,3A3,3,0,0,1,11,3Z" transform="translate(3 5)"/>
</svg>
