<svg id="Group_15" data-name="Group 15" xmlns="http://www.w3.org/2000/svg" width="16" height="16" viewBox="0 0 16 16">
  <rect id="Rectangle" width="16" height="16" fill="none"/>
  <g id="Star" transform="translate(1.333 2)">
    <path id="Star-2" data-name="Star" d="M10.613,7.88a.731.731,0,0,0-.213.647l.593,3.28a.721.721,0,0,1-.3.72.733.733,0,0,1-.78.053L6.961,11.04a.757.757,0,0,0-.333-.087H6.447a.541.541,0,0,0-.18.06L3.313,12.56a.777.777,0,0,1-.473.073.741.741,0,0,1-.593-.847l.593-3.28a.747.747,0,0,0-.213-.653L.22,5.52a.72.72,0,0,1-.179-.753.748.748,0,0,1,.593-.5l3.313-.481a.741.741,0,0,0,.587-.406L5.993.387a.678.678,0,0,1,.134-.18L6.187.16A.44.44,0,0,1,6.294.073L6.367.047,6.48,0h.281a.748.748,0,0,1,.587.4L8.827,3.38a.741.741,0,0,0,.553.406l3.313.481a.756.756,0,0,1,.607.5.724.724,0,0,1-.193.753Z" transform="translate(0 0)" fill="#ff6d59"/>
  </g>
</svg>
