<svg xmlns="http://www.w3.org/2000/svg" width="104.666" height="20" viewBox="0 0 104.666 20">
  <path id="tweakapp" d="M92.911,20V4.444h1.933V6.356a4.7,4.7,0,0,1,4.2-2.2,5.328,5.328,0,0,1,3.978,1.712A5.753,5.753,0,0,1,104.666,10a5.8,5.8,0,0,1-1.644,4.155,5.307,5.307,0,0,1-3.978,1.689,4.7,4.7,0,0,1-4.2-2.2V20ZM78.845,20V4.444h1.933V6.356a4.7,4.7,0,0,1,4.2-2.2,5.326,5.326,0,0,1,3.977,1.712A5.754,5.754,0,0,1,90.6,10a5.8,5.8,0,0,1-1.645,4.155,5.3,5.3,0,0,1-3.977,1.689,4.7,4.7,0,0,1-4.2-2.2V20ZM65.8,14.155A5.8,5.8,0,0,1,64.156,10,5.753,5.753,0,0,1,65.8,5.867a5.328,5.328,0,0,1,3.978-1.712,4.7,4.7,0,0,1,4.2,2.2V4.444h1.933V15.556H73.978V13.644a4.7,4.7,0,0,1-4.2,2.2A5.307,5.307,0,0,1,65.8,14.155Zm-25.267,0A5.8,5.8,0,0,1,38.889,10a5.753,5.753,0,0,1,1.644-4.133,5.328,5.328,0,0,1,3.978-1.712,4.7,4.7,0,0,1,4.2,2.2V4.444h1.934V15.556H48.711V13.644a4.7,4.7,0,0,1-4.2,2.2A5.307,5.307,0,0,1,40.533,14.155ZM27.578,14.2A5.765,5.765,0,0,1,25.934,10a5.731,5.731,0,0,1,1.622-4.178,5.628,5.628,0,0,1,4.2-1.667,5.075,5.075,0,0,1,3.978,1.733,5.871,5.871,0,0,1,1.555,4.134,5.737,5.737,0,0,1-.067.867H27.911a3.792,3.792,0,0,0,4.022,3.133,3.463,3.463,0,0,0,3.2-1.622l1.644.933a5.452,5.452,0,0,1-4.889,2.511A5.917,5.917,0,0,1,27.578,14.2ZM2.2,12.334V6.311H0V4.444H2.2V1.911l1.934-.578V4.444H7.089V6.311H4.134v6.023c0,1.711.977,1.578,2.956,1.489v1.733a11.382,11.382,0,0,1-1.474.107C3.268,15.663,2.2,14.649,2.2,12.334Zm58.379,3.222-5.067-5.267v5.267H53.578V0h1.933V9.356l4.8-4.911H62.8L57.489,9.823l5.488,5.733Zm-41.445,0-2.6-8.222-2.6,8.222H11.956L8.511,4.444h2.022l2.444,8.445L15.6,4.444h1.867l2.623,8.467,2.444-8.467h2.022L21.111,15.556Z" fill="#202020"/>
</svg>
